# xmcd
#
# Track frame offsets:
#	225
#	22125
#	33225
#	50597
#	68332
#	87850
#	99660
#	113602
#	133945
#	154617
#	170370
#	184585
#	197770
#	211972
#	232390
#	249805
#	267912
#
# Disc length: 3808 seconds
#
# Revision: 0
# Processed by: cddbd v1.4PL0 Copyright (c) Steve Scherf et al.
# Submitted via: audiograbber 1.81.02
#
DISCID=e50edd11
DTITLE=Akord - Od vcera vecera... (8)
DYEAR=1996
DGENRE=ludova hudba
TTITLE0=Ked budu vonat lipy
TTITLE1=V Bardejovskej nemocnici
TTITLE2=Smutne detstvo
TTITLE3=Pozdrav z vojny
TTITLE4=Uz kohuti spievaju
TTITLE5=Na vrchu Machnaca
TTITLE6=Sumrak v udoli
TTITLE7=Lucenie
TTITLE8=Od vcera vecera
TTITLE9=Aki to mladenci
TTITLE10=Vikendova romanca
TTITLE11=Pocuvaj Anicka
TTITLE12=Sukromnicka
TTITLE13=Balada o zemi
TTITLE14=Javorove listie
TTITLE15=Slovenske matky
TTITLE16=Prstienocek zlaty
EXTD=
EXTT0=
EXTT1=
EXTT2=
EXTT3=
EXTT4=
EXTT5=
EXTT6=
EXTT7=
EXTT8=
EXTT9=
EXTT10=
EXTT11=
EXTT12=
EXTT13=
EXTT14=
EXTT15=
EXTT16=
PLAYORDER=
